<svg width="24" height="21" viewBox="0 0 24 21" fill="none" xmlns="http://www.w3.org/2000/svg">
<path d="M23.346 0.419627C22.3651 1.00818 21.3188 1.40055 20.2071 1.66213C19.2916 0.681207 18.049 0.0926514 16.6104 0.0926514C13.8638 0.0926514 11.7057 2.38148 11.7057 5.12807C11.7057 5.52044 11.7711 5.91281 11.8365 6.30519C7.71662 6.0436 4.11989 4.01636 1.70027 0.942788C1.3079 1.66213 1.04632 2.57766 1.04632 3.4932C1.04632 5.25886 1.89646 6.76295 3.26975 7.67848C2.48501 7.67848 1.70027 7.4169 1.04632 7.02453V7.15532C1.04632 9.57494 2.74659 11.6676 4.97003 12.1253C4.57766 12.2561 4.11989 12.3215 3.66213 12.3215C3.33515 12.3215 3.00817 12.3215 2.74659 12.2561C3.40054 14.2834 5.16621 15.7221 7.32425 15.7875C5.62398 17.1608 3.53133 17.9455 1.17711 17.9455C0.784741 17.9455 0.392371 17.9455 0 17.8801C2.15804 19.3188 4.77384 20.1689 7.52044 20.1689C16.6104 20.1689 21.515 12.4523 21.515 5.78202C21.515 5.58584 21.515 5.32426 21.515 5.12807C22.4959 4.40873 23.346 3.55859 24 2.51227C23.1499 2.90464 22.1689 3.16622 21.188 3.29701C22.1689 2.57767 22.9537 1.59674 23.346 0.419627Z" fill="#B3B3B3"/>
</svg>
