<svg width="26" height="24" viewBox="0 0 26 24" fill="none" xmlns="http://www.w3.org/2000/svg">
<path d="M23.9417 0H2.05833C0.866667 0 0 0.866667 0 2.05833V2.38333C0 3.46667 0.866667 4.33333 2.05833 4.33333H24.05C25.1333 4.33333 26.1083 3.46667 26.1083 2.275V2.05833C26 0.866667 25.1333 0 23.9417 0Z" fill="white"/>
<path d="M23.9417 9.75H2.05833C0.866667 9.75 0 10.725 0 11.8083V12.1333C0 13.2167 0.866667 14.1917 2.05833 14.1917H24.05C25.1333 14.1917 26.1083 13.325 26.1083 12.1333V11.8083C26 10.725 25.1333 9.75 23.9417 9.75Z" fill="white"/>
<path d="M23.9417 19.5H2.05833C0.975 19.5 0 20.3667 0 21.5583V21.8833C0 22.9667 0.866667 23.9417 2.05833 23.9417H24.05C25.1333 23.9417 26.1083 23.075 26.1083 21.8833V21.5583C26 20.475 25.1333 19.5 23.9417 19.5Z" fill="white"/>
</svg>
